<svg width="120" height="120" viewBox="0 0 120 120" fill="none" xmlns="http://www.w3.org/2000/svg">
<g clip-path="url(#clip0_28_132)">
<mask id="mask0_28_132" style="mask-type:luminance" maskUnits="userSpaceOnUse" x="0" y="0" width="120" height="120">
<path d="M120 0H0V120H120V0Z" fill="white"/>
</mask>
<g mask="url(#mask0_28_132)">
<path d="M30.0705 37.963C33.6461 34.745 39.4939 33.4536 43.941 31.9893C49.1546 30.2726 54.3102 29.4934 59.7755 29.4934C63.3786 29.4934 67.9185 28.7845 71.3956 29.9435C73.3539 30.5963 72.4185 31.0751 72.4185 32.9917C72.4185 40.8098 75.3644 48.1347 75.3644 56.0069C75.3644 60.1242 73.8553 64.9272 71.8866 68.5067C70.2631 71.4584 68.2223 72.4223 65.0536 73.6826C60.7039 75.4126 55.6273 77.0611 50.9785 77.6514C46.4813 78.2225 43.3275 76.4543 39.2766 74.8691C31.1171 71.6763 29.4817 62.5018 28.9863 54.5748C28.7814 51.2972 28.624 47.4184 29.334 44.2231C29.6312 42.886 30.1671 41.6709 30.4592 40.3566C30.7027 39.2609 31.9117 38.8783 31.9117 37.963" stroke="#295FFE" stroke-width="3" stroke-linecap="round"/>
<path d="M38.54 46.4326C38.54 49.5453 40.5379 52.2696 41.8542 54.9022" stroke="#295FFE" stroke-width="3" stroke-linecap="round"/>
<path d="M58.0569 39.8042C58.0569 42.7168 58.7586 44.7356 59.6935 47.4555C59.8481 47.9052 60.8905 50.7078 61.3711 49.7468" stroke="#295FFE" stroke-width="3" stroke-linecap="round"/>
<path d="M50.6921 60.7939C54.0901 61.2793 61.1463 66.4145 64.3171 62.451C65.7532 60.6558 63.9128 62.9985 63.376 63.658C61.8372 65.5484 59.9189 67.2152 58.0978 68.8339C57.1498 69.6765 49.9183 78.6459 48.769 74.6234C47.8182 71.2956 46.8991 67.2751 48.4826 64.1081" stroke="#295FFE" stroke-width="3" stroke-linecap="round"/>
<path d="M45.5367 28.3886C45.1907 27.0042 38.1564 27.724 37.2717 29.4933C36.4837 31.0693 37.4132 33.0722 39.2766 33.1757C41.1861 33.2818 38.104 31.8388 37.64 31.7028C35.2756 31.0098 30.6565 30.7665 28.2498 31.5186C26.0222 32.2148 25.6516 34.8467 25.6516 36.8582" stroke="#295FFE" stroke-width="3" stroke-linecap="round"/>
<path d="M25.6514 36.8582C25.6514 38.3227 25.5956 38.6994 27.1244 38.6994" stroke="#295FFE" stroke-width="3" stroke-linecap="round"/>
<path d="M27.1244 38.6993C25.804 38.6993 24.4746 38.6485 23.1555 38.6993C21.871 38.7487 22.057 40.0583 21.7849 40.9292C21.1465 42.972 18.9168 47.5358 21.8871 48.56C24.1496 49.3402 27.851 50.0387 30.234 49.3579C30.5708 49.2616 29.5886 49.8601 29.3338 50.1148C28.4871 50.9616 27.5982 51.7819 26.7971 52.6721C24.9557 54.718 23.3564 57.0906 22.2554 59.6073C21.0882 62.2752 18.1787 68.8093 21.212 71.0842C22.2987 71.8992 23.4061 72.2094 24.7308 72.2094C25.7942 72.2094 25.7657 72.8642 24.9149 73.396C23.2315 74.4481 23.1087 78.9018 23.6465 80.5153C24.6744 83.5989 27.4323 86.0095 29.8657 88.0234C31.1416 89.0792 33.0915 90.9898 34.8575 90.9898" stroke="#295FFE" stroke-width="3" stroke-linecap="round"/>
<path d="M47.3779 32.4394C47.6051 27.8956 49.3054 23.137 54.5791 24.4198C57.9287 25.2346 60.6347 28.8976 60.6347 32.2552C60.6347 33.2544 60.227 29.5743 60.5938 28.5933C62.0227 24.7709 65.8724 21.2948 68.9815 18.8348C72.4042 16.1268 75.7981 14.1734 80.2334 14.0272C83.4839 13.92 84.2495 17.614 84.7546 20.3078C85.6474 25.0694 86.0759 29.4274 84.7751 34.1578C84.5524 34.9675 84.1637 35.5641 83.834 36.3059C83.567 36.9066 83.2722 36.5096 83.5476 36.2036C84.4501 35.2009 88.2107 35.6098 89.2144 36.04C95.8446 38.8815 97.5089 49.8133 94.513 55.6387C93.5262 57.5576 94.1762 56.7454 95.8428 57.7049C100.397 60.3273 103.335 64.9666 104.803 69.9592C105.359 71.8495 106.819 76.1315 105.56 78.0197C104.58 79.4905 102.645 79.2062 101.141 79.2062" stroke="#295FFE" stroke-width="3" stroke-linecap="round"/>
<path d="M42.959 28.0204C43.5199 27.9403 42.5689 27.3465 42.3657 27.2839C40.6191 26.7465 38.8375 26.5375 37.0262 26.3633C30.2958 25.7162 25.2724 26.5336 21.2736 32.378C20.9804 32.8064 17.5092 37.963 19.5756 37.963C22.2113 37.963 19.201 36.9964 18.123 36.6946C15.9138 36.076 7.67558 34.4057 7.23941 38.3312C7.13709 39.2521 6.87117 40.1812 6.87117 41.2772C6.87117 42.4123 7.92274 42.9512 7.97589 43.8549C8.06914 45.44 7.2439 46.2984 6.68704 47.7214C5.53892 50.6555 5.39819 53.6302 5.39819 56.7434C5.39819 59.4055 5.63164 61.6033 8.3646 62.7989C9.1323 63.1348 12.0266 62.5297 12.0266 63.5559C12.0266 64.539 11.1123 65.313 10.5536 66.0313C9.50716 67.3767 8.9909 68.9724 8.18047 70.4502C6.59587 73.3398 5.76644 76.2074 5.76644 79.4926C5.76644 83.4355 11.2516 89.2972 15.3408 86.5711" stroke="#295FFE" stroke-width="3" stroke-linecap="round"/>
<path d="M45.1684 25.4425C45.1684 27.7565 45.1172 20.7441 45.7821 18.5277C46.5248 16.0521 48.4247 12.554 51.449 12.554C54.3647 12.554 55.4792 15.142 55.4792 17.914C55.4792 19.9362 55.345 17.8787 55.561 17.0957C56.4283 13.9519 60.4632 12.1406 63.2123 11.081C67.7559 9.32989 72.6164 9.60809 77.3897 9.60809C79.9385 9.60809 83.2791 9.1659 85.3069 11.081C86.0138 11.7486 86.3154 13.0852 86.8617 13.5769C87.4264 14.0852 90.5842 12.9223 91.4034 12.9223C99.0257 12.9223 107.013 14.1951 110.327 22.1488C114.238 31.536 115.871 42.2917 115.871 52.447C115.871 55.887 116.807 58.8282 113.662 60.7939" stroke="#295FFE" stroke-width="3" stroke-linecap="round"/>
<path d="M31.5434 21.0238C31.1484 20.9744 31.1683 20.6728 30.8887 20.4305C29.7629 19.4549 28.1784 18.8499 26.7971 18.3643C22.5317 16.8647 17.6509 15.676 13.1312 15.2138C11.069 15.0028 8.94584 15.1319 6.87109 15.1319" stroke="#295FFE" stroke-width="3" stroke-linecap="round"/>
<path d="M42.1385 25.1959C39.3653 23.7364 36.4498 24.0912 33.3825 24.0912C32.5574 24.0912 31.7322 24.0912 30.9071 24.0912C30.2168 24.0912 30.9332 23.9204 30.457 23.3343C29.4844 22.1372 27.5311 21.8379 26.1404 21.4317C23.4175 20.6362 20.5989 20.0953 17.7526 20.0405C16.391 20.0143 13.4221 19.3955 12.6995 20.9611C12.1392 22.1751 12.2651 23.4226 11.9221 24.6231C11.755 25.208 8.29896 24.8096 7.81006 24.8277C6.10593 24.8908 5.54047 25.9871 5.13007 27.4463C3.78191 32.2398 2 36.7175 2 41.7669" stroke="#295FFE" stroke-width="3" stroke-linecap="round"/>
<path d="M41.7703 24.0912C41.7703 21.7533 40.7308 17.6966 44.4298 19.0176C45.1464 19.2736 47.3392 21.9662 45.9642 22.5773C44.098 23.4067 43.9797 13.5905 43.9797 12.3074C43.9797 10.6395 43.6854 8.62387 44.2457 7.02927C44.8943 5.18312 47.0859 3.85589 48.6032 2.81494C51.6928 0.695349 56.4101 -0.581083 60.1415 -0.581083C61.7235 -0.581083 61.507 -2.18266 62.6783 -3.15878C64.2277 -4.44992 65.9365 -5 67.9155 -5" stroke="#295FFE" stroke-width="3" stroke-linecap="round"/>
</g>
</g>
<defs>
<clipPath id="clip0_28_132">
<rect width="120" height="120" fill="white"/>
</clipPath>
</defs>
</svg>
