<svg width="120" height="120" viewBox="0 0 120 120" fill="none" xmlns="http://www.w3.org/2000/svg">
<g clip-path="url(#clip0_28_126)">
<path d="M37.3867 28.427C37.3867 34.3272 37.3867 40.2275 37.3867 46.1278C37.3867 52.2011 36.713 58.7949 38.6345 64.6606C41.4483 73.2501 48.615 81.72 57.8837 83.3089C63.4995 84.2716 68.5256 83.8051 72.696 79.6347C75.7889 76.5418 78.034 72.9702 79.5592 68.8432C82.2309 61.6137 86.2727 51.9196 82.725 44.233C81.4887 41.5544 80.777 39.3734 78.6579 37.2543C76.7047 35.3011 74.5319 33.7322 72.3263 32.078C68.3229 29.0755 62.4004 25.9148 57.3291 25.4922C53.7798 25.1964 47.7257 23.2391 44.2729 25.1225C40.2708 27.3055 38.0957 32.2319 34.0591 34.2502" stroke="#295FFE" stroke-width="3" stroke-linecap="round"/>
<path d="M14.0938 65.4464C23.0211 56.519 34.5123 49.9663 45.7057 44.2331C53.5774 40.2012 61.8381 36.9325 70.1542 33.8344C75.3799 31.8875 81.8262 32.5865 87.3004 32.5865C90.2152 32.5865 92.3973 32.1239 93.9557 34.8511C95.5374 37.6191 89.8989 40.5193 87.9014 41.5525C73.2294 49.1415 57.9935 55.7117 42.4474 61.2638C35.2807 63.8234 26.8463 67.1102 19.1082 67.1102C15.4155 67.1102 14.9256 66.646 14.9256 62.9507" stroke="#295FFE" stroke-width="3" stroke-linecap="round"/>
<path d="M12.8459 76.6768C18.7807 76.6768 24.7163 74.1039 30.2233 72.1014C36.0721 69.9745 42.401 67.5242 47.7855 64.3832C51.9715 61.9414 56.3555 60.0097 60.5875 57.6356C65.9328 54.637 71.0318 51.1542 76.1162 47.7222C83.6272 42.6522 91.5827 36.4222 97.4682 29.4667C98.4412 28.3168 99.9298 26.5149 97.9304 25.5152C94.4158 23.7579 91.0033 23.0195 87.0926 23.0195C82.1226 23.0195 77.0737 22.7552 72.1416 23.4355C68.893 23.8836 65.4363 25.4587 62.4361 26.7631C57.81 28.7744 53.9526 32.6855 49.8422 35.498C44.4652 39.1769 39.0149 43.0142 33.9668 47.1445C27.8982 52.1097 22.0223 56.5315 17.8373 63.274C16.481 65.4591 13.5395 76.2608 17.4214 76.2608" stroke="#295FFE" stroke-width="3" stroke-linecap="round"/>
<path d="M26.5723 76.2609C46.815 76.2609 66.2442 71.9895 82.7483 59.8541C85.4478 57.8692 88.1052 55.9035 90.7207 53.7998C91.8598 52.8835 93.7448 51.7671 94.4642 50.4722C95.667 48.3071 84.7513 48.8084 83.8806 48.8084C71.8307 48.8084 59.3731 47.7425 48.0167 52.575C40.1596 55.9185 33.1713 62.2114 26.9882 67.9189C24.4174 70.2919 20.672 72.0279 18.6693 74.9207C17.9058 76.0235 16.1395 78.352 14.9258 78.7566" stroke="#295FFE" stroke-width="3" stroke-linecap="round"/>
</g>
<defs>
<clipPath id="clip0_28_126">
<rect width="120" height="120" fill="white"/>
</clipPath>
</defs>
</svg>
