<svg width="120" height="120" viewBox="0 0 120 120" fill="none" xmlns="http://www.w3.org/2000/svg">
<g clip-path="url(#clip0_28_107)">
<mask id="mask0_28_107" style="mask-type:luminance" maskUnits="userSpaceOnUse" x="0" y="0" width="120" height="120">
<path d="M120 0H0V120H120V0Z" fill="white"/>
</mask>
<g mask="url(#mask0_28_107)">
<path d="M49.7161 13.7638C49.1569 13.8337 49.4619 18.0606 49.4619 18.7068C49.4619 20.6515 49.8 23.7637 51.7498 24.8926C53.1699 25.7147 54.7898 26.4743 56.5233 26.4743C58.9711 26.4743 60.4002 25.9631 61.7205 23.7627C63.0162 21.6032 63.9519 18.2875 63.9519 15.7975C63.9519 14.3368 63.49 13.3959 62.6808 12.1821C61.5509 10.4873 59.9639 9.32203 57.9073 8.99033C55.5618 8.61202 52.7972 7.90681 50.4788 8.67963" stroke="#295FFE" stroke-width="3" stroke-linecap="round"/>
<path d="M54.8003 27.9995C54.8003 30.7405 53.8171 33.7913 52.9644 36.3885C50.9986 42.375 50.5067 47.9102 50.2245 54.1831C50.0169 58.8009 49.7727 63.4143 49.7302 68.0375C49.6847 73.0038 49.1344 78.5363 50.3658 83.4031C51.2118 86.7468 53.1544 89.7768 55.337 92.3992C61.8195 100.188 70.3602 104.84 80.6167 105.477C83.2545 105.641 86.4659 106.041 88.7937 104.545C89.9116 103.826 89.8812 103.523 89.8812 102.229" stroke="#295FFE" stroke-width="3" stroke-linecap="round"/>
<path d="M49.462 58.5049C45.9156 58.5049 41.3321 57.8188 39.1241 54.72C35.5919 49.7624 36.4973 43.3994 36.4973 37.6597" stroke="#295FFE" stroke-width="3" stroke-linecap="round"/>
<path d="M50.7329 52.658C53.9079 52.2044 57.359 49.7868 60.1669 48.4211C66.7851 45.2023 73.5103 42.1573 80.4895 39.7921C86.0794 37.8978 91.6209 36.897 97.5074 36.897" stroke="#295FFE" stroke-width="3" stroke-linecap="round"/>
<path d="M95.2196 34.3548C95.2196 33.1375 94.5432 31.6179 94.005 30.5416C93.674 29.8795 92.0897 28.2538 93.313 28.2538C95.3451 28.2538 98.1726 28.5904 99.9225 27.6182C101.652 26.6576 101.575 28.363 101.575 29.5248C101.575 30.9579 101.461 32.3195 102.027 33.5922C102.616 34.9188 100.647 34.6381 99.9084 34.8491C99.338 35.012 98.8338 34.7791 98.2701 35.0609C97.0332 35.6794 97.1247 34.3429 96.9991 33.338" stroke="#295FFE" stroke-width="3" stroke-linecap="round"/>
<path d="M97.2533 28.2539C97.2533 27.6486 97.5412 25.4744 96.999 25.2034" stroke="#295FFE" stroke-width="3" stroke-linecap="round"/>
<path d="M36.4973 37.1513C35.93 37.0883 35.3226 36.4455 34.972 36.0073C34.7713 35.7564 33.944 34.8545 34.5907 35.3718C35.5152 36.1114 35.3771 37.5305 36.0454 38.3658C36.3873 38.7933 36.2431 39.5198 36.2431 40.0747C36.2431 41.1581 37.3781 39.6181 37.5141 39.3121C38.1161 37.9577 38.7852 37.4138 38.7852 35.8802" stroke="#295FFE" stroke-width="3" stroke-linecap="round"/>
<path d="M42.6903 76C41.0837 79.5703 37.3912 82.8009 34.9793 85.7871C29.219 92.9188 23.548 100.042 17.3259 106.788C12.5419 111.974 7.82597 117.703 1 119.978" stroke="#295FFE" stroke-width="3" stroke-linecap="round"/>
</g>
</g>
<defs>
<clipPath id="clip0_28_107">
<rect width="120" height="120" fill="white"/>
</clipPath>
</defs>
</svg>
