<svg width="120" height="120" viewBox="0 0 120 120" fill="none" xmlns="http://www.w3.org/2000/svg">
<g clip-path="url(#clip0_28_101)">
<path d="M56.6574 6.46191C56.6574 12.1173 57.0067 17.9499 55.8021 23.5093C53.3405 34.8708 48.5231 45.6073 46.1577 57.0141C44.666 64.2072 42.0773 71.9088 41.7926 79.3114C41.7488 80.4498 41.2617 81.3967 41.2617 82.5852C41.2617 83.3914 41.519 80.9599 41.9106 80.2552C44.2741 76.0009 51.2143 72.7575 54.9763 69.9913C56.8779 68.5931 65.6825 61.4265 65.6825 66.1867C65.6825 71.8843 65.2412 77.7867 65.948 83.4405C66.9661 91.5857 67.9068 101.139 71.5223 108.628C72.4953 110.644 73.2076 112.806 74.2947 114.763C74.8408 115.746 75.9265 116.139 76.3002 116.886" stroke="#295FFE" stroke-width="3" stroke-linecap="round"/>
<path d="M24.2732 21.3267V45.7475" stroke="#295FFE" stroke-width="3" stroke-linecap="round"/>
<path d="M77.3621 19.7339V35.1296" stroke="#295FFE" stroke-width="3" stroke-linecap="round"/>
<path d="M24.2732 92.4655C24.4661 92.9797 28.487 94.7788 29.1692 95.1199C33.2117 97.1412 37.821 97.9526 41.9399 99.8684C50.9029 104.037 63.0243 106.609 72.9378 104.971C78.4573 104.059 84.6452 101.005 89.6608 98.6296C93.5563 96.7844 97.5166 94.8563 101.252 92.7014C104.617 90.7603 111.079 87.406 112.401 83.4404" stroke="#295FFE" stroke-width="3" stroke-linecap="round"/>
</g>
<defs>
<clipPath id="clip0_28_101">
<rect width="120" height="120" fill="white"/>
</clipPath>
</defs>
</svg>
