<svg width="120" height="120" viewBox="0 0 120 120" fill="none" xmlns="http://www.w3.org/2000/svg">
<g clip-path="url(#clip0_28_52)">
<path d="M13.7001 62.9717C13.7001 63.6292 13.6766 62.0075 13.7265 61.7829C13.9622 60.7226 14.8178 59.3383 15.4437 58.4806C17.3999 55.8 19.5799 53.1143 21.0708 50.1325C25.0699 42.1342 30.4942 35.2405 36.7631 28.9716C39.3145 26.4203 42.3844 24.8239 45.3226 22.7898C47.5372 21.2566 51.5718 19.106 54.1198 18.378C59.349 16.8839 64.9091 14.9436 70.3933 14.9436C74.3388 14.9436 78.4327 15.1361 81.938 17.0835C85.8232 19.2419 87.7879 21.7176 90.4711 25.1674C94.1803 29.9365 95.6886 37.1149 96.9435 42.7619C98.5877 50.1607 96.7051 58.7512 90.3654 63.4472C88.5505 64.7916 86.9153 66.7081 84.8176 67.7269C82.0167 69.0874 78.535 69.9799 75.5184 70.8179C71.4013 71.9615 67.612 72.0067 63.3925 72.0067C60.8969 72.0067 56.122 75.0239 54.4896 76.6562C52.0829 79.063 49.6226 82.1998 48.3078 85.4271C46.4172 90.0678 42.9928 95.3974 42.7072 100.538C42.508 104.123 42.2317 107.759 42.2317 111.475" stroke="#295FFE" stroke-width="3" stroke-linecap="round"/>
<path d="M12.7493 62.4963C12.7493 67.6106 11.1513 72.5583 9.4206 77.3432C7.49799 82.6587 6.88027 88.155 5.85416 93.696C4.42348 101.422 4.66534 109.345 4.66534 117.182" stroke="#295FFE" stroke-width="3" stroke-linecap="round"/>
<path d="M7.51844 79.1396C7.51844 77.079 7.51844 75.0184 7.51844 72.9578C7.51844 71.1971 8.32541 66.7922 7.04291 65.3494C6.1839 64.383 3.77006 54.2945 4.92947 53.9632C6.13966 53.6174 9.10884 54.9791 10.398 55.1256C13.6554 55.4958 17.0805 55.8389 20.3576 55.8389C23.6669 55.8389 26.9532 56.425 30.238 56.79C30.9054 56.8641 33.6958 56.9382 34.1479 57.5032C36.3621 60.271 30.5286 51.4008 28.9435 48.2305C26.2926 42.9287 23.6503 37.7277 20.8332 32.5382C19.8819 30.7858 18.8257 28.7645 17.6101 27.2017C17.197 26.6705 20.6846 27.3633 20.9388 27.413C23.96 28.0041 26.9915 27.5092 30.0266 27.8886C34.837 28.4899 39.865 28.2307 44.6094 29.3151C47.392 29.9512 47.4639 30.5117 46.9871 27.6508C46.2941 23.4933 45.864 19.3471 45.1114 15.2079C44.5502 12.1216 44.9798 12.837 47.9909 13.9662C50.2655 14.8192 52.8193 14.6556 55.0446 15.657C56.3707 16.2537 57.674 16.6154 59.0865 16.8722C60.8349 17.1901 62.2039 17.842 62.2039 15.4192" stroke="#295FFE" stroke-width="3" stroke-linecap="round"/>
<path d="M66.4836 34.9158C63.8211 35.2486 68.2276 40.6312 69.099 41.3089C70.8841 42.6974 72.8358 42.2175 73.8542 40.3843C76.2086 36.1464 71.4941 33.0137 67.9102 33.0137" stroke="#295FFE" stroke-width="3" stroke-linecap="round"/>
<path d="M89.3087 32.0625C89.3087 35.2108 90.2518 40.4624 88.0935 43.2374C87.0712 44.5517 84.981 45.4264 84.527 47.0152C84.3986 47.4648 90.1906 47.2599 91.1051 47.2793C94.8215 47.3584 98.4232 48.7059 102.148 48.7059" stroke="#295FFE" stroke-width="3" stroke-linecap="round"/>
<path d="M78.152 72.141C81.1998 72.141 84.9206 71.5713 87.821 72.7222C89.187 73.2643 91.6416 73.8309 92.7876 74.6243C93.8535 75.3622 94.3774 75.9015 92.8932 76.5264C90.7444 77.4312 88.2526 77.644 86.0245 78.4285C79.075 80.8755 72.0369 83.1263 65.0486 85.4557C63.9952 85.8068 60.1864 86.4068 63.0408 86.4068C66.973 86.4068 70.0998 88.5483 73.291 90.7922C76.2461 92.8699 80.3303 94.9101 82.9072 97.3439C84.9619 99.2844 82.0146 99.0279 80.556 99.4837C75.765 100.981 70.9073 102.172 66.1317 103.763C63.2582 104.721 68.4426 104.477 69.1698 104.477C73.3441 104.477 76.6853 105.254 80.7409 105.903C81.5296 106.03 86.3915 107.042 86.685 108.07C87.3563 110.419 83.3309 111.903 81.7184 112.798C80.4073 113.527 79.6483 115.185 78.4161 115.889C77.1448 116.616 77.2009 117.68 77.2009 115.414" stroke="#295FFE" stroke-width="3" stroke-linecap="round"/>
</g>
<defs>
<clipPath id="clip0_28_52">
<rect width="120" height="120" fill="white"/>
</clipPath>
</defs>
</svg>
