<svg width="120" height="120" viewBox="0 0 120 120" fill="none" xmlns="http://www.w3.org/2000/svg">
<g clip-path="url(#clip0_28_75)">
<path d="M14.8591 42.4613C18.9676 42.2196 22.7872 40.4562 26.4729 38.7628C30.4599 36.9309 34.5683 35.3272 38.6049 33.6037C42.0463 32.1344 46.1865 31.5807 49.2058 29.3162" stroke="#295FFE" stroke-width="3" stroke-linecap="round"/>
<path d="M17.8274 42.8851C17.8274 46.8349 17.8274 50.7847 17.8274 54.7345C17.8274 56.4935 17.1977 61.6445 17.851 60.0114C19.228 56.5687 26.7343 56.0746 29.6532 55.7003C31.8397 55.42 36.6208 55.5321 36.9325 53.0384C37.1409 51.371 39.1832 49.9396 40.2776 48.8451C42.1976 46.9251 44.3232 45.4098 46.4261 43.7096C50.3641 40.5257 54.3784 37.4002 58.2991 34.1924C61.7249 31.3895 65.3693 28.7526 68.6172 25.8295C69.507 25.0287 65.5448 25.0403 64.848 25.3113C62.7004 26.1465 41.9825 36.071 41.1493 34.4044" stroke="#295FFE" stroke-width="3" stroke-linecap="round"/>
<path d="M20.3715 58.5744C20.1275 58.6048 19.3249 69.0874 19.0758 70.7064C18.6625 73.3931 18.2513 75.8455 18.2513 78.5982C18.2513 80.4392 17.6745 82.4249 20.1595 81.8726C22.5639 81.3383 25.3807 80.4202 27.5801 79.352C28.5621 78.875 31.6378 78.6262 32.2444 77.8679C32.7235 77.269 33.0365 77.8157 33.0925 76.8078C33.1733 75.3537 34.4253 72.9609 35.0242 71.6723C36.9736 67.4781 38.1809 62.1393 38.1809 57.5143C38.1809 56.2265 38.6049 53.6744 38.6049 53.6744C38.6049 53.6744 39.029 55.9429 39.029 57.0902C39.029 58.7512 40.9811 59.6905 41.1491 61.1186C41.2042 61.5863 42.2723 63.443 42.6568 63.6628C43.8404 64.3391 46.0687 69.9031 47.2976 67.6911C48.3173 65.8556 50.144 64.7619 51.3259 63.1445C52.2399 61.8939 53.7294 60.7893 52.6923 59.7522C51.3076 58.3676 49.8886 52.562 53.0221 52.2138C54.801 52.0162 60.4741 50.417 60.6547 53.486C60.7074 54.383 61.3948 53.3014 61.5263 53.0384C62.3813 51.3284 65.0206 50.2108 66.4262 48.9865C68.9473 46.7908 73.0261 44.5301 74.742 41.613C75.9559 39.5494 74.0088 42.2984 72.9516 40.977C72.1005 39.913 72.1036 38.9838 72.1036 37.5847C72.1036 34.9881 76.7091 34.219 77.616 36.7131C78.2669 38.5029 80.6211 35.5188 81.8564 34.8285C83.5382 33.8886 85.5187 32.3307 86.7092 30.8002C87.7564 29.4538 85.3618 29.7401 84.4006 29.7401C81.9012 29.7401 79.4991 28.7292 77.0035 28.4915C74.8904 28.2903 72.8642 27.1959 70.8315 27.1959C69.8858 27.1959 67.8399 26.7252 67.4392 25.9238" stroke="#295FFE" stroke-width="3" stroke-linecap="round"/>
<path d="M33.9407 75.9597C38.7041 75.9597 41.3911 73.2946 45.3896 71.2954" stroke="#295FFE" stroke-width="3" stroke-linecap="round"/>
<path d="M53.8701 59.8466C57.0483 59.8466 59.3826 60.1846 59.3826 56.4543" stroke="#295FFE" stroke-width="3" stroke-linecap="round"/>
<path d="M75.4961 45.8535C75.4961 44.683 78.0185 39.2701 76.7682 38.645" stroke="#295FFE" stroke-width="3" stroke-linecap="round"/>
<path d="M20.3716 47.9736C21.5868 48.1255 22.3456 49.5967 23.3398 50.0938" stroke="#295FFE" stroke-width="3" stroke-linecap="round"/>
<path d="M23.3398 45.4294C23.4137 46.0202 26.1203 45.9719 26.8263 46.6073C27.795 47.479 29.7631 48.4186 30.9724 48.8217" stroke="#295FFE" stroke-width="3" stroke-linecap="round"/>
<path d="M2.13818 78.08C4.20686 77.8731 9.209 75.2685 10.5953 73.6512C11.1267 73.0312 13.1679 71.7195 14.0111 71.7195" stroke="#295FFE" stroke-width="3" stroke-linecap="round"/>
<path d="M7.65063 112.003C9.46902 112.003 11.127 110.655 12.5506 109.694C19.035 105.317 25.2093 100.509 31.3023 95.6067C42.0759 86.9384 53.332 77.8224 62.4452 67.3849C68.0683 60.9449 72.7966 53.9278 77.946 47.1255C81.8561 41.9603 86.1284 37.0736 89.7012 31.6483C92.8325 26.8933 96.1034 22.1566 99.4068 17.5139C101.4 14.713 102.967 11.5978 105.39 9.17456C107.687 6.87754 110.757 5.14624 114.083 5.14624" stroke="#295FFE" stroke-width="3" stroke-linecap="round"/>
<path d="M3.83423 98.4336C3.91104 97.8191 4.63029 98.0096 5.10633 98.0096" stroke="#295FFE" stroke-width="3" stroke-linecap="round"/>
<path d="M7.65063 95.4655C8.0807 95.4177 8.51607 95.177 8.92274 95.0415" stroke="#295FFE" stroke-width="3" stroke-linecap="round"/>
<path d="M11.8909 92.4971L12.315 92.073" stroke="#295FFE" stroke-width="3" stroke-linecap="round"/>
</g>
<defs>
<clipPath id="clip0_28_75">
<rect width="120" height="120" fill="white"/>
</clipPath>
</defs>
</svg>
