<svg width="120" height="120" viewBox="0 0 120 120" fill="none" xmlns="http://www.w3.org/2000/svg">
<g clip-path="url(#clip0_28_60)">
<mask id="mask0_28_60" style="mask-type:luminance" maskUnits="userSpaceOnUse" x="0" y="0" width="120" height="120">
<path d="M120 0H0V120H120V0Z" fill="white"/>
</mask>
<g mask="url(#mask0_28_60)">
<path d="M2.91138 60.9895C29.2498 60.9895 55.2885 56.8737 81.1979 52.377C87.8797 51.2174 94.5623 50.239 101.181 48.7965C102.981 48.4042 108.394 47.4902 106.552 47.4902" stroke="#295FFE" stroke-width="3" stroke-linecap="round"/>
<path d="M99.1487 47.9256C101.76 47.9256 104.208 47.9084 106.769 47.5144C107.716 47.3687 110.052 47.5639 110.809 46.9579C112.507 45.5997 115.6 46.1031 117.438 44.8774" stroke="#295FFE" stroke-width="3" stroke-linecap="round"/>
<path d="M7.70166 82.3271C9.1878 83.8132 12.2566 86.9902 14.669 87.1172C16.198 87.1977 16.3758 84.0223 16.7496 82.8593C17.1777 81.5275 17.5982 78.3465 19.0237 77.6338C20.881 76.7051 22.8344 78.518 24.4912 78.8192C25.9897 79.0917 27.3037 79.7143 28.8216 79.7143C29.9973 79.7143 30.5652 77.5357 31.4344 76.8596C33.4786 75.2697 36.058 75.7951 38.6195 75.7951" stroke="#295FFE" stroke-width="3" stroke-linecap="round"/>
<path d="M41.6675 85.3754C43.8462 85.6175 45.7216 88.8462 47.3286 85.8109C48.1276 84.3017 49.0822 82.5788 50.1591 81.2627C50.3734 81.0008 51.4927 78.5034 51.659 79.0854C52.7794 83.0068 58.8529 83.1981 62.1343 83.1981" stroke="#295FFE" stroke-width="3" stroke-linecap="round"/>
<path d="M81.2949 73.1826C82.2484 74.1361 85.4839 77.5205 86.3027 74.9002C87.4525 71.2211 89.0422 67.7799 90.6332 64.2798C91.1443 63.1552 92.5045 58.2324 93.7056 57.9655C94.5508 57.7776 97.3818 60.0092 98.278 60.4573C99.6983 61.1675 102.367 61.8605 103.939 61.8605" stroke="#295FFE" stroke-width="3" stroke-linecap="round"/>
<path d="M23.3782 106.278C26.0901 106.278 26.6587 104.191 27.7328 101.923C28.9495 99.3545 29.2327 99.3103 31.8697 99.3103C34.2743 99.3103 36.358 102.148 38.6194 102.794C40.7807 103.411 40.003 102.64 40.7967 101.052" stroke="#295FFE" stroke-width="3" stroke-linecap="round"/>
<path d="M68.231 98.4394C69.8071 98.4394 71.9351 98.9601 72.9969 97.5443C75.5924 94.0836 77.2794 90.0477 80.182 86.7303C83.1226 83.3697 86.7676 84.0692 90.8751 84.0692" stroke="#295FFE" stroke-width="3" stroke-linecap="round"/>
<path d="M59.957 116.293C65.2453 116.293 70.7134 116.736 75.9724 116.197C80.5205 115.73 84.2397 114.325 88.4556 112.713C93.9573 110.609 98.4919 107.399 103.503 104.536C106.19 103 108.982 100.815 111.245 98.7781C112.342 97.7904 115.696 97.5496 115.696 95.8267" stroke="#295FFE" stroke-width="3" stroke-linecap="round"/>
<path d="M-8 54.2479C-8 44.4548 -3.72438 35.7879 0.0802593 26.9104C1.25259 24.175 2.08239 20.2452 4.0962 18.0076C5.05123 16.9465 4.46372 18.343 4.65262 19.1931C5.50654 23.0357 10.0864 26.6106 12.7087 29.2329C17.0871 33.6113 21.5294 38.4687 26.4016 42.2968C28.8163 44.1941 30.7203 47.3675 33.369 48.9255C34.7132 49.7162 33.9485 48.5941 34.4576 47.474C35.0596 46.1496 34.9834 44.2792 35.4495 42.829C36.0363 41.0036 36.2117 38.9822 37.0704 37.2648C38.0585 35.2886 39.2123 33.1054 39.8042 30.9748C40.7998 27.3906 42.2213 23.232 43.8201 19.8463C44.503 18.4001 44.5247 16.8887 45.2233 15.4916C45.6986 14.5409 45.8825 15.1361 46.6506 15.7336C48.7953 17.4017 51.3617 18.442 53.739 19.7495C59.2412 22.7757 64.6673 25.9178 70.1414 28.991C74.0817 31.2031 78.3288 33.1227 82.1409 35.5229C83.8546 36.602 85.7735 37.4786 87.1487 39.0066C89.0582 41.1283 88.2373 38.0326 88.2373 36.3697C88.2373 34.4894 88.1235 32.5895 88.4551 30.7328C88.9775 27.8071 90.2066 25.1147 90.7533 22.2171C91.2329 19.6752 92.3229 14.195 93.9951 12.1047C94.7438 11.1688 100.148 16.7912 101.059 17.669C104.361 20.8502 108.486 23.2574 112.018 26.1847C114.122 27.9277 116.982 31.1698 119.591 32.0392" stroke="#295FFE" stroke-width="3" stroke-linecap="round"/>
</g>
</g>
<defs>
<clipPath id="clip0_28_60">
<rect width="120" height="120" fill="white"/>
</clipPath>
</defs>
</svg>
