<svg width="120" height="120" viewBox="0 0 120 120" fill="none" xmlns="http://www.w3.org/2000/svg">
<g clip-path="url(#clip0_28_121)">
<path d="M9.88159 93.3212C10.1041 92.0976 11.2847 91.0089 11.9552 90.0223C14.329 86.5294 16.9467 83.2779 19.59 79.984C24.4047 73.9841 29.7964 68.4365 35.0009 62.7822C38.9419 58.5006 42.685 53.4646 46.995 49.6335C47.8609 48.8638 50.5667 46.6224 49.6577 45.4862C48.822 44.4416 47.5888 43.0167 47.2306 41.7631C45.9874 37.4119 48.766 34.4292 52.3911 31.8191C55.0879 29.8774 57.4687 27.3061 60.3793 25.6688C63.7217 23.7887 66.8972 20.7314 70.5354 19.5186" stroke="#295FFE" stroke-width="3" stroke-linecap="round"/>
<path d="M50.6001 45.8159C49.9341 45.8159 51.5656 45.3096 51.5898 45.2975C54.084 44.0504 56.2451 42.3621 58.4705 40.7025C62.9283 37.378 67.3033 34.0095 71.5721 30.4521C74.3189 28.1632 77.5411 25.3469 80.715 23.76" stroke="#295FFE" stroke-width="3" stroke-linecap="round"/>
<path d="M49.752 46.6644C53.5814 50.0684 61.8465 49.2665 66.2939 48.0311C70.8953 46.753 74.7926 43.926 78.6415 41.1269C80.6011 39.7017 82.6203 38.3843 84.556 36.9325C84.971 36.6212 87.8433 34.7881 87.5016 34.7881" stroke="#295FFE" stroke-width="3" stroke-linecap="round"/>
</g>
<defs>
<clipPath id="clip0_28_121">
<rect width="120" height="120" fill="white"/>
</clipPath>
</defs>
</svg>
