<svg width="120" height="120" viewBox="0 0 120 120" fill="none" xmlns="http://www.w3.org/2000/svg">
<g clip-path="url(#clip0_28_90)">
<path d="M20.4185 18.3368C22.2513 18.3368 24.1694 18.0927 25.8731 18.8877C28.3638 20.0501 30.4083 21.1012 32.4572 22.9925C34.7377 25.0976 35.9549 27.8389 37.2782 30.4857" stroke="#295FFE" stroke-width="3" stroke-linecap="round"/>
<path d="M25.7393 31.6763C25.7393 33.5086 26.8664 33.664 28.5162 33.9782C34.6704 35.1504 40.8998 33.9779 46.3836 31.0917C48.449 30.0046 56.5155 26.8693 54.0202 23.1262" stroke="#295FFE" stroke-width="3" stroke-linecap="round"/>
<path d="M24.7528 31.6762C24.6237 32.9672 23.7419 33.7238 23.1817 34.782C22.3061 36.4357 21.2285 38.2462 20.7884 40.0801C20.2446 42.3457 18.6844 44.5493 17.7009 46.657C16.5868 49.0443 15.8279 51.8039 14.8874 54.2936C13.9058 56.892 13.3172 59.5927 12.5124 62.186C12.0409 63.7051 11.5989 64.7442 11.5989 66.3696C11.5989 69.511 12.4038 71.5131 14.0653 74.0976C15.9922 77.095 20.6161 78.9434 23.6932 80.3457C29.3683 82.9318 34.7684 86.0647 40.5375 88.4938C41.7658 89.0109 43.4146 89.3108 44.4837 90.2111C45.8191 91.3356 46.6317 91.2246 48.2472 90.6861C51.7465 89.5196 55.5019 88.9128 58.9895 87.6534C61.1623 86.8688 63.4227 86.332 65.4934 85.2966C66.9707 84.558 68.768 84.2486 70.1155 83.3053C73.3789 81.0209 77.4641 80.412 80.9858 78.7014C82.2736 78.0759 82.8435 76.8746 82.9589 75.4129C83.2434 71.809 85.7213 68.0918 86.7041 64.5975C89.6142 54.2505 90.8512 43.4743 90.8512 32.7358C90.8512 31.2948 90.9359 29.8265 90.8512 28.3877C90.8068 27.6332 88.6377 26.6817 88.0195 26.3964C82.4688 23.8345 76.5223 21.89 70.4809 21.1348C67.446 20.7554 64.3517 20.8242 61.2549 20.8242C58.9614 20.8242 56.9565 21.8108 54.678 21.8108" stroke="#295FFE" stroke-width="3" stroke-linecap="round"/>
<path d="M25.4104 12.603C29.0207 12.603 31.6622 12.8416 35.0201 14.2473C37.9189 15.4607 39.8563 16.1497 41.9259 18.4492C43.2788 19.9524 44.3745 22.6969 44.4836 24.7704C44.61 27.1715 45.799 29.6887 45.799 32.005" stroke="#295FFE" stroke-width="3" stroke-linecap="round"/>
<path d="M73.751 31.0186C73.9791 32.9575 77.0203 35.858 78.3549 37.2667C79.1707 38.1278 79.9962 39.2354 80.6568 40.2263" stroke="#295FFE" stroke-width="3" stroke-linecap="round"/>
<path d="M64.8721 36.9377C66.7987 37.1518 69.3673 40.1136 70.5356 41.5416C71.3672 42.5579 72.6648 43.2155 73.0933 44.5012" stroke="#295FFE" stroke-width="3" stroke-linecap="round"/>
<path d="M57.6375 43.8435C59.1635 45.5221 61.8342 47.8836 62.5702 50.0916" stroke="#295FFE" stroke-width="3" stroke-linecap="round"/>
<path d="M41.5239 50.7495C41.5239 53.3289 41.7107 55.5849 42.5104 57.9841" stroke="#295FFE" stroke-width="3" stroke-linecap="round"/>
<path d="M26.7258 53.709C26.7258 58.2398 26.7258 62.7706 26.7258 67.3014C26.7258 68.2233 27.4266 74.5693 26.397 75.0841" stroke="#295FFE" stroke-width="3" stroke-linecap="round"/>
</g>
<defs>
<clipPath id="clip0_28_90">
<rect width="120" height="120" fill="white"/>
</clipPath>
</defs>
</svg>
